G04 EAGLE Gerber RS-274X export*
G75*
%MOMM*%
%FSLAX34Y34*%
%LPD*%
%INTop Copper*%
%IPPOS*%
%AMOC8*
5,1,8,0,0,1.08239X$1,22.5*%
G01*
%ADD10R,1.508000X1.508000*%
%ADD11C,1.508000*%
%ADD12P,1.732040X8X112.500000*%
%ADD13C,1.600200*%
%ADD14C,1.308000*%
%ADD15C,1.524000*%
%ADD16P,1.814519X8X202.500000*%
%ADD17P,1.814519X8X22.500000*%
%ADD18C,1.879600*%
%ADD19P,1.924489X8X112.500000*%
%ADD20C,1.778000*%
%ADD21C,0.406400*%
%ADD22C,0.254000*%
%ADD23C,1.006400*%


D10*
X227330Y476504D03*
D11*
X252730Y476504D03*
X278130Y476504D03*
X303530Y476504D03*
X328930Y476504D03*
X354330Y476504D03*
X379730Y476504D03*
X405130Y476504D03*
X430530Y476504D03*
X455930Y476504D03*
X481330Y476504D03*
X506730Y476504D03*
X532130Y476504D03*
X557530Y476504D03*
X582930Y476504D03*
X608330Y476504D03*
D10*
X608330Y362204D03*
D11*
X608330Y387604D03*
X608330Y413004D03*
X608330Y438404D03*
D12*
X245110Y49784D03*
D13*
X245110Y24384D03*
D14*
X95748Y408324D02*
X95748Y421404D01*
X121148Y421404D02*
X121148Y408324D01*
X146548Y408324D02*
X146548Y421404D01*
X171948Y421404D02*
X171948Y408324D01*
X197348Y408324D02*
X197348Y421404D01*
X222748Y421404D02*
X222748Y408324D01*
X248148Y408324D02*
X248148Y421404D01*
X273548Y421404D02*
X273548Y408324D01*
X298948Y408324D02*
X298948Y421404D01*
X324348Y421404D02*
X324348Y408324D01*
X349748Y408324D02*
X349748Y421404D01*
X375148Y421404D02*
X375148Y408324D01*
X400548Y408324D02*
X400548Y421404D01*
X425948Y421404D02*
X425948Y408324D01*
X451348Y408324D02*
X451348Y421404D01*
X476748Y421404D02*
X476748Y408324D01*
D15*
X693674Y476250D03*
X719074Y476250D03*
X744474Y476250D03*
D16*
X515112Y51054D03*
X413512Y51054D03*
X638048Y51054D03*
X536448Y51054D03*
D17*
X661670Y51054D03*
X763270Y51054D03*
D18*
X765810Y144272D03*
X740410Y144272D03*
X715010Y144272D03*
X689610Y144272D03*
X664210Y144272D03*
X638810Y144272D03*
X613410Y144272D03*
X588010Y144272D03*
X562610Y144272D03*
X537210Y144272D03*
X511810Y144272D03*
X486410Y144272D03*
X486410Y322072D03*
X511810Y322072D03*
X537210Y322072D03*
X562610Y322072D03*
X588010Y322072D03*
X613410Y322072D03*
X638810Y322072D03*
X664210Y322072D03*
X689610Y322072D03*
X715010Y322072D03*
X740410Y322072D03*
X765810Y322072D03*
D19*
X123190Y54610D03*
D20*
X123190Y29210D03*
D12*
X307594Y49784D03*
D13*
X307594Y24384D03*
D12*
X369316Y49784D03*
D13*
X369316Y24384D03*
D21*
X244094Y48768D02*
X129032Y48768D01*
X244094Y48768D02*
X245110Y49784D01*
X307594Y49784D01*
X369316Y49784D01*
X412242Y49784D02*
X413512Y51054D01*
X412242Y49784D02*
X369316Y49784D01*
X129032Y48768D02*
X123190Y54610D01*
X608330Y438404D02*
X689610Y357124D01*
X689610Y322072D01*
X689610Y264160D02*
X740410Y213360D01*
X689610Y264160D02*
X689610Y322072D01*
X740410Y213360D02*
X740410Y144272D01*
D22*
X520192Y439166D02*
X557530Y476504D01*
X454314Y439166D02*
X430012Y414864D01*
X425948Y414864D01*
X454314Y439166D02*
X520192Y439166D01*
X455571Y414864D02*
X451348Y414864D01*
X455571Y414864D02*
X474747Y434040D01*
X540466Y434040D02*
X582930Y476504D01*
X540466Y434040D02*
X474747Y434040D01*
D21*
X227330Y476504D02*
X207518Y456692D01*
X98893Y414864D02*
X95748Y414864D01*
X140721Y456692D02*
X207518Y456692D01*
X140721Y456692D02*
X98893Y414864D01*
X226314Y450088D02*
X252730Y476504D01*
X226314Y450088D02*
X159512Y450088D01*
X124288Y414864D02*
X121148Y414864D01*
X124288Y414864D02*
X159512Y450088D01*
D22*
X150612Y414864D02*
X146548Y414864D01*
X150612Y414864D02*
X169834Y434086D01*
X235712Y434086D02*
X278130Y476504D01*
X235712Y434086D02*
X169834Y434086D01*
X340360Y434086D02*
X379730Y473456D01*
X379730Y476504D01*
X252176Y414864D02*
X248148Y414864D01*
X252176Y414864D02*
X271398Y434086D01*
X340360Y434086D01*
X418592Y439166D02*
X455930Y476504D01*
X418592Y439166D02*
X352873Y439166D01*
X328571Y414864D02*
X324348Y414864D01*
X328571Y414864D02*
X352873Y439166D01*
X438912Y434086D02*
X481330Y476504D01*
X353558Y414864D02*
X349748Y414864D01*
X353558Y414864D02*
X372780Y434086D01*
X438912Y434086D01*
X546690Y414864D02*
X608330Y476504D01*
X546690Y414864D02*
X476748Y414864D01*
X354330Y476504D02*
X316992Y439166D01*
X251206Y439166D01*
X226904Y414864D02*
X222748Y414864D01*
X226904Y414864D02*
X251206Y439166D01*
X591566Y413004D02*
X608330Y413004D01*
X591566Y413004D02*
X511810Y333248D01*
X511810Y322072D01*
D23*
X545084Y387604D03*
D22*
X523494Y387604D01*
X486410Y350520D01*
X486410Y322072D01*
D21*
X763270Y116641D02*
X763270Y51054D01*
X783590Y329637D02*
X748284Y364943D01*
X783590Y136961D02*
X763270Y116641D01*
X783590Y136961D02*
X783590Y329637D01*
X748284Y421640D02*
X693674Y476250D01*
X748284Y421640D02*
X748284Y364943D01*
D22*
X307594Y24384D02*
X245110Y24384D01*
X307594Y24384D02*
X369316Y24384D01*
X638048Y51054D02*
X661670Y51054D01*
X605028Y18034D02*
X375666Y18034D01*
X369316Y24384D01*
X605028Y18034D02*
X638048Y51054D01*
X536448Y51054D02*
X515112Y51054D01*
X572770Y103632D02*
X613410Y144272D01*
X572770Y103632D02*
X572770Y87376D01*
X536448Y51054D01*
M02*
