G04 EAGLE Gerber RS-274X export*
G75*
%MOMM*%
%FSLAX34Y34*%
%LPD*%
%INBottom Copper*%
%IPPOS*%
%AMOC8*
5,1,8,0,0,1.08239X$1,22.5*%
G01*
%ADD10R,1.508000X1.508000*%
%ADD11C,1.508000*%
%ADD12P,1.732040X8X112.500000*%
%ADD13C,1.600200*%
%ADD14C,1.308000*%
%ADD15C,1.524000*%
%ADD16P,1.814519X8X202.500000*%
%ADD17P,1.814519X8X22.500000*%
%ADD18C,1.879600*%
%ADD19P,1.924489X8X112.500000*%
%ADD20C,1.778000*%
%ADD21C,0.406400*%
%ADD22C,0.254000*%
%ADD23C,1.006400*%


D10*
X227330Y476504D03*
D11*
X252730Y476504D03*
X278130Y476504D03*
X303530Y476504D03*
X328930Y476504D03*
X354330Y476504D03*
X379730Y476504D03*
X405130Y476504D03*
X430530Y476504D03*
X455930Y476504D03*
X481330Y476504D03*
X506730Y476504D03*
X532130Y476504D03*
X557530Y476504D03*
X582930Y476504D03*
X608330Y476504D03*
D10*
X608330Y362204D03*
D11*
X608330Y387604D03*
X608330Y413004D03*
X608330Y438404D03*
D12*
X245110Y49784D03*
D13*
X245110Y24384D03*
D14*
X95748Y408324D02*
X95748Y421404D01*
X121148Y421404D02*
X121148Y408324D01*
X146548Y408324D02*
X146548Y421404D01*
X171948Y421404D02*
X171948Y408324D01*
X197348Y408324D02*
X197348Y421404D01*
X222748Y421404D02*
X222748Y408324D01*
X248148Y408324D02*
X248148Y421404D01*
X273548Y421404D02*
X273548Y408324D01*
X298948Y408324D02*
X298948Y421404D01*
X324348Y421404D02*
X324348Y408324D01*
X349748Y408324D02*
X349748Y421404D01*
X375148Y421404D02*
X375148Y408324D01*
X400548Y408324D02*
X400548Y421404D01*
X425948Y421404D02*
X425948Y408324D01*
X451348Y408324D02*
X451348Y421404D01*
X476748Y421404D02*
X476748Y408324D01*
D15*
X693674Y476250D03*
X719074Y476250D03*
X744474Y476250D03*
D16*
X515112Y51054D03*
X413512Y51054D03*
X638048Y51054D03*
X536448Y51054D03*
D17*
X661670Y51054D03*
X763270Y51054D03*
D18*
X765810Y144272D03*
X740410Y144272D03*
X715010Y144272D03*
X689610Y144272D03*
X664210Y144272D03*
X638810Y144272D03*
X613410Y144272D03*
X588010Y144272D03*
X562610Y144272D03*
X537210Y144272D03*
X511810Y144272D03*
X486410Y144272D03*
X486410Y322072D03*
X511810Y322072D03*
X537210Y322072D03*
X562610Y322072D03*
X588010Y322072D03*
X613410Y322072D03*
X638810Y322072D03*
X664210Y322072D03*
X689610Y322072D03*
X715010Y322072D03*
X740410Y322072D03*
X765810Y322072D03*
D19*
X123190Y54610D03*
D20*
X123190Y29210D03*
D12*
X307594Y49784D03*
D13*
X307594Y24384D03*
D12*
X369316Y49784D03*
D13*
X369316Y24384D03*
D21*
X707983Y111845D02*
X740410Y144272D01*
X707983Y111845D02*
X474303Y111845D01*
X413512Y51054D01*
X681228Y438404D02*
X719074Y476250D01*
X681228Y438404D02*
X608330Y438404D01*
D22*
X303530Y476504D02*
X271272Y444246D01*
X176171Y414864D02*
X171948Y414864D01*
X205553Y444246D02*
X271272Y444246D01*
X205553Y444246D02*
X176171Y414864D01*
X291592Y439166D02*
X328930Y476504D01*
X291592Y439166D02*
X225552Y439166D01*
X201250Y414864D02*
X197348Y414864D01*
X201250Y414864D02*
X225552Y439166D01*
X367792Y439166D02*
X405130Y476504D01*
X277771Y414864D02*
X273548Y414864D01*
X302073Y439166D02*
X367792Y439166D01*
X302073Y439166D02*
X277771Y414864D01*
X388112Y434086D02*
X430530Y476504D01*
X388112Y434086D02*
X322326Y434086D01*
X303104Y414864D02*
X298948Y414864D01*
X303104Y414864D02*
X322326Y434086D01*
X469392Y439166D02*
X506730Y476504D01*
X469392Y439166D02*
X403673Y439166D01*
X379371Y414864D02*
X375148Y414864D01*
X379371Y414864D02*
X403673Y439166D01*
X489712Y434086D02*
X532130Y476504D01*
X404612Y414864D02*
X400548Y414864D01*
X404612Y414864D02*
X423834Y434086D01*
X489712Y434086D01*
D23*
X545084Y387604D03*
D22*
X608330Y387604D01*
D21*
X608330Y362204D02*
X451375Y362204D01*
X451295Y362124D01*
X333756Y248492D02*
X333756Y201422D01*
X161544Y29210D01*
X123190Y29210D01*
X447388Y362124D02*
X451295Y362124D01*
X447388Y362124D02*
X333756Y248492D01*
X765810Y144272D02*
X779780Y158242D01*
X779780Y327859D01*
X745435Y362204D01*
X608330Y362204D01*
X744474Y438912D02*
X744474Y476250D01*
X744474Y438912D02*
X699262Y393700D01*
X640080Y393700D01*
X608584Y362204D01*
X608330Y362204D01*
M02*
