G04 EAGLE Gerber RS-274X export*
G75*
%MOMM*%
%FSLAX34Y34*%
%LPD*%
%INSoldermask Bottom*%
%IPPOS*%
%AMOC8*
5,1,8,0,0,1.08239X$1,22.5*%
G01*
%ADD10C,2.613197*%
%ADD11R,1.711200X1.711200*%
%ADD12C,1.711200*%
%ADD13P,1.951982X8X112.500000*%
%ADD14C,1.803400*%
%ADD15C,1.511200*%
%ADD16C,3.003200*%
%ADD17C,1.727200*%
%ADD18P,2.034460X8X202.500000*%
%ADD19P,2.034460X8X22.500000*%
%ADD20C,2.082800*%
%ADD21P,2.144431X8X112.500000*%
%ADD22C,1.981200*%
%ADD23C,1.209600*%


D10*
X191680Y20500D03*
X191680Y482800D03*
X643980Y482800D03*
X643980Y20500D03*
D11*
X227330Y476504D03*
D12*
X252730Y476504D03*
X278130Y476504D03*
X303530Y476504D03*
X328930Y476504D03*
X354330Y476504D03*
X379730Y476504D03*
X405130Y476504D03*
X430530Y476504D03*
X455930Y476504D03*
X481330Y476504D03*
X506730Y476504D03*
X532130Y476504D03*
X557530Y476504D03*
X582930Y476504D03*
X608330Y476504D03*
D11*
X608330Y362204D03*
D12*
X608330Y387604D03*
X608330Y413004D03*
X608330Y438404D03*
D13*
X245110Y49784D03*
D14*
X245110Y24384D03*
D15*
X95748Y408324D02*
X95748Y421404D01*
X121148Y421404D02*
X121148Y408324D01*
X146548Y408324D02*
X146548Y421404D01*
X171948Y421404D02*
X171948Y408324D01*
X197348Y408324D02*
X197348Y421404D01*
X222748Y421404D02*
X222748Y408324D01*
X248148Y408324D02*
X248148Y421404D01*
X273548Y421404D02*
X273548Y408324D01*
X298948Y408324D02*
X298948Y421404D01*
X324348Y421404D02*
X324348Y408324D01*
X349748Y408324D02*
X349748Y421404D01*
X375148Y421404D02*
X375148Y408324D01*
X400548Y408324D02*
X400548Y421404D01*
X425948Y421404D02*
X425948Y408324D01*
X451348Y408324D02*
X451348Y421404D01*
X476748Y421404D02*
X476748Y408324D01*
D16*
X41148Y105664D03*
X41148Y414864D03*
X790348Y414864D03*
X790348Y105664D03*
D17*
X693674Y476250D03*
X719074Y476250D03*
X744474Y476250D03*
D18*
X515112Y51054D03*
X413512Y51054D03*
X638048Y51054D03*
X536448Y51054D03*
D19*
X661670Y51054D03*
X763270Y51054D03*
D20*
X765810Y144272D03*
X740410Y144272D03*
X715010Y144272D03*
X689610Y144272D03*
X664210Y144272D03*
X638810Y144272D03*
X613410Y144272D03*
X588010Y144272D03*
X562610Y144272D03*
X537210Y144272D03*
X511810Y144272D03*
X486410Y144272D03*
X486410Y322072D03*
X511810Y322072D03*
X537210Y322072D03*
X562610Y322072D03*
X588010Y322072D03*
X613410Y322072D03*
X638810Y322072D03*
X664210Y322072D03*
X689610Y322072D03*
X715010Y322072D03*
X740410Y322072D03*
X765810Y322072D03*
D21*
X123190Y54610D03*
D22*
X123190Y29210D03*
D13*
X307594Y49784D03*
D14*
X307594Y24384D03*
D13*
X369316Y49784D03*
D14*
X369316Y24384D03*
D23*
X545084Y387604D03*
M02*
