M48
;GenerationSoftware,Autodesk,EAGLE,9.5.2*%
;CreationDate,2020-04-19T03:44:48Z*%
FMAT,2
ICI,OFF
METRIC,TZ,000.000
T7C0.600
T6C0.800
T5C0.813
T4C1.000
T3C1.016
T2C2.410
T1C2.800
%
G90
M71
T1
X4115Y10566
X4115Y41486
X79035Y41486
X79035Y10566
T2
X64398Y2050
X19168Y2050
X19168Y48280
X64398Y48280
T3
X74041Y14427
X76581Y14427
X66421Y32207
X74447Y47625
X71907Y47625
X69367Y47625
X51181Y14427
X53721Y14427
X56261Y14427
X58801Y14427
X61341Y14427
X63881Y14427
X48641Y14427
X66421Y14427
X68961Y14427
X71501Y14427
X48641Y32207
X51181Y32207
X53721Y32207
X56261Y32207
X58801Y32207
X61341Y32207
X63881Y32207
X68961Y32207
X71501Y32207
X74041Y32207
X76581Y32207
T4
X53213Y47650
X55753Y47650
X58293Y47650
X60833Y47650
X60833Y36220
X60833Y38760
X60833Y41300
X60833Y43840
X50673Y47650
X25273Y47650
X22733Y47650
X27813Y47650
X30353Y47650
X32893Y47650
X35433Y47650
X37973Y47650
X40513Y47650
X43053Y47650
X45593Y47650
X48133Y47650
T5
X76327Y5105
X53645Y5105
X24511Y2438
X24511Y4978
X51511Y5105
X41351Y5105
X63805Y5105
X66167Y5105
X12319Y5461
X12319Y2921
X30759Y4978
X30759Y2438
X36932Y4978
X36932Y2438
T6
X29895Y41486
X27355Y41486
X24815Y41486
X22275Y41486
X19735Y41486
X17195Y41486
X12115Y41486
X9575Y41486
X42595Y41486
X45135Y41486
X47675Y41486
X37515Y41486
X34975Y41486
X32435Y41486
X14655Y41486
X40055Y41486
T7
X54508Y38760
M30